<svg width="1440" height="1024" viewBox="0 0 1440 1024" xmlns="http://www.w3.org/2000/svg">
  <rect width="1440" height="1024" fill="#F5EFE6"/>

  <!-- ===== Sidebar ===== -->
  <rect x="0" y="0" width="240" height="1024" fill="#FBF8F2"/>
  <line x1="240" y1="0" x2="240" y2="1024" stroke="#E5DCCC"/>
  <g transform="translate(24, 32)">
    <circle cx="16" cy="16" r="16" fill="#C5572D"/>
    <text x="16" y="22" text-anchor="middle" font-family="Fraunces, Georgia, serif" font-style="italic" font-weight="600" font-size="16" fill="#FBF8F2">H</text>
    <text x="44" y="14" font-family="Fraunces, Georgia, serif" font-size="15" font-weight="500" fill="#1F1A17">Hyperglow<tspan font-style="italic" fill="#C5572D"> Admin</tspan></text>
    <text x="44" y="28" font-family="Geist Mono, monospace" font-size="9" letter-spacing="2" fill="#A29687">SEVANA SYSTEM · v2.4</text>
  </g>
  <line x1="24" y1="88" x2="216" y2="88" stroke="#E5DCCC"/>

  <text x="32" y="116" font-family="Geist Mono, monospace" font-size="10" letter-spacing="2" fill="#A29687">OVERVIEW</text>
  <g transform="translate(16, 128)">
    <rect width="208" height="40" rx="11" fill="#F0D8C9"/>
    <text x="20" y="25" font-family="Fraunces, Georgia, serif" font-size="13" font-weight="500" fill="#C5572D"><tspan font-style="italic">Dashboard</tspan></text>
  </g>
  <g transform="translate(16, 172)">
    <text x="20" y="25" font-family="Fraunces, Georgia, serif" font-size="13" font-weight="400" fill="#3A322C">Live orders</text>
    <g transform="translate(150, 12)">
      <rect width="42" height="16" rx="8" fill="#C5572D"/>
      <text x="21" y="12" text-anchor="middle" font-family="Geist Mono, monospace" font-size="9" font-weight="600" fill="#FBF8F2">14</text>
    </g>
  </g>
  <g transform="translate(16, 212)"><text x="20" y="25" font-family="Fraunces, Georgia, serif" font-size="13" font-weight="400" fill="#3A322C">Order history</text></g>

  <text x="32" y="276" font-family="Geist Mono, monospace" font-size="10" letter-spacing="2" fill="#A29687">MENU</text>
  <g transform="translate(16, 288)"><text x="20" y="25" font-family="Fraunces, Georgia, serif" font-size="13" font-weight="400" fill="#3A322C">Categories</text></g>
  <g transform="translate(16, 328)"><text x="20" y="25" font-family="Fraunces, Georgia, serif" font-size="13" font-weight="400" fill="#3A322C">Items</text></g>
  <g transform="translate(16, 368)"><text x="20" y="25" font-family="Fraunces, Georgia, serif" font-size="13" font-weight="400" fill="#3A322C">Extras &amp; modifiers</text></g>

  <text x="32" y="432" font-family="Geist Mono, monospace" font-size="10" letter-spacing="2" fill="#A29687">OPERATIONS</text>
  <g transform="translate(16, 444)"><text x="20" y="25" font-family="Fraunces, Georgia, serif" font-size="13" font-weight="400" fill="#3A322C">Devices / Tables</text></g>
  <g transform="translate(16, 484)"><text x="20" y="25" font-family="Fraunces, Georgia, serif" font-size="13" font-weight="400" fill="#3A322C">Stations</text></g>
  <g transform="translate(16, 524)"><text x="20" y="25" font-family="Fraunces, Georgia, serif" font-size="13" font-weight="400" fill="#3A322C">Staff</text></g>
  <g transform="translate(16, 564)"><text x="20" y="25" font-family="Fraunces, Georgia, serif" font-size="13" font-weight="400" fill="#3A322C">Reports</text></g>

  <text x="32" y="628" font-family="Geist Mono, monospace" font-size="10" letter-spacing="2" fill="#A29687">SETTINGS</text>
  <g transform="translate(16, 640)"><text x="20" y="25" font-family="Fraunces, Georgia, serif" font-size="13" font-weight="400" fill="#3A322C">Payments</text></g>
  <g transform="translate(16, 680)"><text x="20" y="25" font-family="Fraunces, Georgia, serif" font-size="13" font-weight="400" fill="#3A322C">Branding</text></g>
  <g transform="translate(16, 720)"><text x="20" y="25" font-family="Fraunces, Georgia, serif" font-size="13" font-weight="400" fill="#3A322C">General</text></g>

  <g transform="translate(16, 956)">
    <rect width="208" height="52" rx="14" fill="#F5EFE6"/>
    <circle cx="30" cy="26" r="15" fill="#C5572D"/>
    <text x="30" y="31" text-anchor="middle" font-family="Geist Mono, monospace" font-size="11" font-weight="600" fill="#FBF8F2">MR</text>
    <text x="54" y="22" font-family="Fraunces, Georgia, serif" font-style="italic" font-size="12" font-weight="500" fill="#1F1A17">Mahmudur R.</text>
    <text x="54" y="38" font-family="Geist Mono, monospace" font-size="9" letter-spacing="1.5" fill="#6B5F55">OWNER</text>
  </g>

  <!-- ===== Top header ===== -->
  <rect x="240" y="0" width="1200" height="72" fill="#FBF8F2"/>
  <line x1="240" y1="72" x2="1440" y2="72" stroke="#E5DCCC"/>
  <text x="272" y="36" font-family="Fraunces, Georgia, serif" font-size="22" font-weight="500" letter-spacing="-0.4" fill="#1F1A17"><tspan font-style="italic" fill="#C5572D">Dashboard</tspan></text>
  <text x="272" y="56" font-family="Geist Mono, monospace" font-size="10" letter-spacing="2" fill="#6B5F55">FRIDAY · MAY 15, 2026 · CAFE OPEN</text>

  <g transform="translate(800, 18)">
    <rect width="320" height="36" rx="10" fill="#F5EFE6" stroke="#E5DCCC"/>
    <g transform="translate(14, 18)" stroke="#6B5F55" stroke-width="1.5" fill="none">
      <circle cx="0" cy="0" r="5"/>
      <line x1="4" y1="4" x2="9" y2="9" stroke-linecap="round"/>
    </g>
    <text x="34" y="22" font-family="Geist, sans-serif" font-size="12" fill="#6B5F55">Search orders, items, tables…</text>
  </g>
  <g transform="translate(1140, 18)">
    <rect width="156" height="36" rx="10" fill="#F5EFE6" stroke="#E5DCCC"/>
    <text x="14" y="23" font-family="Fraunces, Georgia, serif" font-style="italic" font-size="13" font-weight="500" fill="#1F1A17">Today</text>
    <polyline points="138,16 144,22 150,16" fill="none" stroke="#6B5F55" stroke-width="1.5"/>
  </g>
  <g transform="translate(1316, 18)">
    <rect width="36" height="36" rx="10" fill="#F5EFE6" stroke="#E5DCCC"/>
    <g transform="translate(18, 18)" stroke="#1F1A17" stroke-width="1.6" stroke-linecap="round" fill="none">
      <path d="M-7 -2 a 7 7 0 1 1 14 0 v 3 l 2 4 h -18 l 2 -4 z"/>
      <path d="M-2 8 a 2 2 0 0 0 4 0"/>
    </g>
    <circle cx="30" cy="6" r="5" fill="#C44A3A"/>
  </g>
  <g transform="translate(1360, 18)">
    <rect width="48" height="36" rx="10" fill="#1F1A17"/>
    <text x="24" y="23" text-anchor="middle" font-family="Geist Mono, monospace" font-size="10" letter-spacing="1.5" fill="#FBF8F2">SHIFT</text>
  </g>

  <!-- ===== KPI cards ===== -->
  <g transform="translate(272, 100)">
    <!-- Revenue -->
    <g>
      <rect width="276" height="124" rx="16" fill="#FBF8F2" stroke="#E5DCCC"/>
      <text x="20" y="32" font-family="Geist Mono, monospace" font-size="10" letter-spacing="2.4" fill="#6B5F55">REVENUE · TODAY</text>
      <text x="20" y="76" font-family="Fraunces, Georgia, serif" font-size="32" font-weight="500" letter-spacing="-0.8" fill="#1F1A17">$2,847<tspan font-style="italic" fill="#C5572D">.20</tspan></text>
      <g transform="translate(20, 96)">
        <rect width="68" height="20" rx="10" fill="#D7E1D2"/>
        <text x="34" y="14" text-anchor="middle" font-family="Geist Mono, monospace" font-size="10" letter-spacing="1" fill="#3D5A3D">▲ 18.4%</text>
      </g>
      <text x="96" y="108" font-family="Geist Mono, monospace" font-size="10" letter-spacing="1" fill="#A29687">VS YESTERDAY</text>
    </g>
    <!-- Orders -->
    <g transform="translate(292, 0)">
      <rect width="276" height="124" rx="16" fill="#FBF8F2" stroke="#E5DCCC"/>
      <text x="20" y="32" font-family="Geist Mono, monospace" font-size="10" letter-spacing="2.4" fill="#6B5F55">ORDERS</text>
      <text x="20" y="76" font-family="Fraunces, Georgia, serif" font-size="32" font-weight="500" letter-spacing="-0.8" fill="#1F1A17">147 <tspan font-style="italic" font-size="16" fill="#A29687">/ 14 live</tspan></text>
      <g transform="translate(20, 96)">
        <rect width="68" height="20" rx="10" fill="#D7E1D2"/>
        <text x="34" y="14" text-anchor="middle" font-family="Geist Mono, monospace" font-size="10" letter-spacing="1" fill="#3D5A3D">▲ 9.2%</text>
      </g>
      <text x="96" y="108" font-family="Geist Mono, monospace" font-size="10" letter-spacing="1" fill="#A29687">VS YESTERDAY</text>
    </g>
    <!-- Active tables -->
    <g transform="translate(584, 0)">
      <rect width="276" height="124" rx="16" fill="#FBF8F2" stroke="#E5DCCC"/>
      <text x="20" y="32" font-family="Geist Mono, monospace" font-size="10" letter-spacing="2.4" fill="#6B5F55">ACTIVE TABLES</text>
      <text x="20" y="76" font-family="Fraunces, Georgia, serif" font-size="32" font-weight="500" letter-spacing="-0.8" fill="#1F1A17">12 <tspan font-style="italic" font-size="16" fill="#A29687">/ 20</tspan></text>
      <g transform="translate(20, 92)">
        <rect width="236" height="6" rx="3" fill="#F0D8C9"/>
        <rect width="142" height="6" rx="3" fill="#C5572D"/>
      </g>
      <text x="20" y="116" font-family="Geist Mono, monospace" font-size="10" letter-spacing="1" fill="#6B5F55">60% OCCUPANCY · 8 IDLE</text>
    </g>
    <!-- Avg order time -->
    <g transform="translate(876, 0)">
      <rect width="276" height="124" rx="16" fill="#FBF8F2" stroke="#E5DCCC"/>
      <text x="20" y="32" font-family="Geist Mono, monospace" font-size="10" letter-spacing="2.4" fill="#6B5F55">AVG ORDER TIME</text>
      <text x="20" y="76" font-family="Fraunces, Georgia, serif" font-size="32" font-weight="500" letter-spacing="-0.8" fill="#1F1A17">11<tspan font-style="italic" fill="#C5572D">:</tspan>32</text>
      <g transform="translate(20, 96)">
        <rect width="68" height="20" rx="10" fill="#FBE6E1"/>
        <text x="34" y="14" text-anchor="middle" font-family="Geist Mono, monospace" font-size="10" letter-spacing="1" fill="#C44A3A">▲ 1:14</text>
      </g>
      <text x="96" y="108" font-family="Geist Mono, monospace" font-size="10" letter-spacing="1" fill="#A29687">TARGET ≤ 10:00</text>
    </g>
  </g>

  <!-- Revenue chart -->
  <g transform="translate(272, 248)">
    <rect width="752" height="320" rx="16" fill="#FBF8F2" stroke="#E5DCCC"/>
    <text x="24" y="36" font-family="Fraunces, Georgia, serif" font-size="18" font-weight="500" fill="#1F1A17">Revenue · <tspan font-style="italic" fill="#C5572D">last 7 days</tspan></text>
    <text x="24" y="58" font-family="Geist Mono, monospace" font-size="11" letter-spacing="1.5" fill="#6B5F55">AVG $2,412 / DAY · TRENDING UP</text>
    <g transform="translate(600, 20)">
      <rect width="136" height="32" rx="10" fill="#F5EFE6"/>
      <rect x="2" y="2" width="44" height="28" rx="8" fill="#1F1A17"/>
      <text x="24" y="20" text-anchor="middle" font-family="Geist Mono, monospace" font-size="11" font-weight="600" fill="#FBF8F2">7D</text>
      <text x="68" y="20" text-anchor="middle" font-family="Geist Mono, monospace" font-size="11" fill="#6B5F55">30D</text>
      <text x="112" y="20" text-anchor="middle" font-family="Geist Mono, monospace" font-size="11" fill="#6B5F55">90D</text>
    </g>
    <line x1="60" y1="270" x2="700" y2="270" stroke="#E5DCCC"/>
    <text x="50" y="100" text-anchor="end" font-family="Geist Mono, monospace" font-size="10" fill="#A29687">$3K</text>
    <text x="50" y="160" text-anchor="end" font-family="Geist Mono, monospace" font-size="10" fill="#A29687">$2K</text>
    <text x="50" y="220" text-anchor="end" font-family="Geist Mono, monospace" font-size="10" fill="#A29687">$1K</text>
    <text x="50" y="274" text-anchor="end" font-family="Geist Mono, monospace" font-size="10" fill="#A29687">$0</text>
    <line x1="60" y1="100" x2="700" y2="100" stroke="#F5EFE6"/>
    <line x1="60" y1="160" x2="700" y2="160" stroke="#F5EFE6"/>
    <line x1="60" y1="220" x2="700" y2="220" stroke="#F5EFE6"/>
    <path d="M 80 200 L 170 180 L 260 220 L 350 160 L 440 140 L 530 180 L 620 110 L 620 270 L 80 270 Z" fill="#C5572D" opacity="0.12"/>
    <polyline points="80,200 170,180 260,220 350,160 440,140 530,180 620,110" fill="none" stroke="#C5572D" stroke-width="2.5" stroke-linejoin="round" stroke-linecap="round"/>
    <g fill="#FBF8F2" stroke="#C5572D" stroke-width="2">
      <circle cx="80" cy="200" r="4"/>
      <circle cx="170" cy="180" r="4"/>
      <circle cx="260" cy="220" r="4"/>
      <circle cx="350" cy="160" r="4"/>
      <circle cx="440" cy="140" r="4"/>
      <circle cx="530" cy="180" r="4"/>
      <circle cx="620" cy="110" r="6" stroke-width="3"/>
    </g>
    <g font-family="Geist Mono, monospace" font-size="10" fill="#A29687" text-anchor="middle">
      <text x="80" y="290">SAT</text>
      <text x="170" y="290">SUN</text>
      <text x="260" y="290">MON</text>
      <text x="350" y="290">TUE</text>
      <text x="440" y="290">WED</text>
      <text x="530" y="290">THU</text>
      <text x="620" y="290" font-weight="600" fill="#C5572D">FRI</text>
    </g>
    <g transform="translate(620, 76)">
      <rect x="-50" y="-2" width="100" height="38" rx="11" fill="#1F1A17"/>
      <text x="0" y="12" text-anchor="middle" font-family="Geist Mono, monospace" font-size="9" letter-spacing="1.5" fill="#A29687">TODAY</text>
      <text x="0" y="28" text-anchor="middle" font-family="Fraunces, Georgia, serif" font-size="14" font-weight="500" fill="#FBF8F2">$2,847.20</text>
    </g>
  </g>

  <!-- Top items -->
  <g transform="translate(1048, 248)">
    <rect width="376" height="320" rx="16" fill="#FBF8F2" stroke="#E5DCCC"/>
    <text x="24" y="36" font-family="Fraunces, Georgia, serif" font-size="18" font-weight="500" fill="#1F1A17">Top <tspan font-style="italic" fill="#C5572D">sellers</tspan></text>
    <text x="24" y="58" font-family="Geist Mono, monospace" font-size="10" letter-spacing="2" fill="#6B5F55">TODAY</text>
    <g transform="translate(24, 84)">
      <text font-family="Fraunces, Georgia, serif" font-size="14" font-weight="500" fill="#1F1A17">Glow Smash<tspan font-style="italic" fill="#C5572D"> Burger</tspan></text>
      <text x="328" text-anchor="end" font-family="Fraunces, Georgia, serif" font-size="14" font-weight="500" fill="#1F1A17">28</text>
      <rect y="20" width="328" height="6" rx="3" fill="#F0D8C9"/>
      <rect y="20" width="280" height="6" rx="3" fill="#C5572D"/>
    </g>
    <g transform="translate(24, 128)">
      <text font-family="Fraunces, Georgia, serif" font-size="14" font-weight="500" fill="#1F1A17">Iced Honey<tspan font-style="italic" fill="#C5572D"> Latte</tspan></text>
      <text x="328" text-anchor="end" font-family="Fraunces, Georgia, serif" font-size="14" font-weight="500" fill="#1F1A17">22</text>
      <rect y="20" width="328" height="6" rx="3" fill="#F0D8C9"/>
      <rect y="20" width="220" height="6" rx="3" fill="#C5572D"/>
    </g>
    <g transform="translate(24, 172)">
      <text font-family="Fraunces, Georgia, serif" font-size="14" font-weight="500" fill="#1F1A17">Margherita<tspan font-style="italic" fill="#C5572D"> 12"</tspan></text>
      <text x="328" text-anchor="end" font-family="Fraunces, Georgia, serif" font-size="14" font-weight="500" fill="#1F1A17">17</text>
      <rect y="20" width="328" height="6" rx="3" fill="#F0D8C9"/>
      <rect y="20" width="170" height="6" rx="3" fill="#C5572D"/>
    </g>
    <g transform="translate(24, 216)">
      <text font-family="Fraunces, Georgia, serif" font-size="14" font-weight="500" fill="#1F1A17">Vanilla Bean<tspan font-style="italic" fill="#C5572D"> Scoop</tspan></text>
      <text x="328" text-anchor="end" font-family="Fraunces, Georgia, serif" font-size="14" font-weight="500" fill="#1F1A17">14</text>
      <rect y="20" width="328" height="6" rx="3" fill="#F0D8C9"/>
      <rect y="20" width="140" height="6" rx="3" fill="#C5572D"/>
    </g>
    <g transform="translate(24, 260)">
      <text font-family="Fraunces, Georgia, serif" font-size="14" font-weight="500" fill="#1F1A17">Tex-Mex<tspan font-style="italic" fill="#C5572D"> Chicken</tspan></text>
      <text x="328" text-anchor="end" font-family="Fraunces, Georgia, serif" font-size="14" font-weight="500" fill="#1F1A17">11</text>
      <rect y="20" width="328" height="6" rx="3" fill="#F0D8C9"/>
      <rect y="20" width="110" height="6" rx="3" fill="#C5572D"/>
    </g>
  </g>

  <!-- Live activity -->
  <g transform="translate(272, 592)">
    <rect width="752" height="408" rx="16" fill="#FBF8F2" stroke="#E5DCCC"/>
    <text x="24" y="36" font-family="Fraunces, Georgia, serif" font-size="18" font-weight="500" fill="#1F1A17">Live <tspan font-style="italic" fill="#C5572D">activity</tspan></text>
    <g transform="translate(640, 16)">
      <rect width="96" height="28" rx="9" fill="#D7E1D2"/>
      <circle cx="14" cy="14" r="4" fill="#3D5A3D"/>
      <text x="26" y="19" font-family="Geist Mono, monospace" font-size="10" letter-spacing="1.5" fill="#3D5A3D">LIVE</text>
    </g>
    <g transform="translate(24, 76)">
      <circle r="6" fill="#3D5A3D"/>
      <text x="20" y="4" font-family="Geist, sans-serif" font-size="13" fill="#1F1A17">Table 03 placed order <tspan font-weight="600">#A048</tspan> · $42.10</text>
      <text x="600" text-anchor="end" y="4" font-family="Geist Mono, monospace" font-size="10" letter-spacing="1" fill="#A29687">JUST NOW</text>
    </g>
    <g transform="translate(24, 112)">
      <circle r="6" fill="#4F9E5F"/>
      <text x="20" y="4" font-family="Geist, sans-serif" font-size="13" fill="#1F1A17">Token <tspan font-weight="600">#A045</tspan> marked ready (Table 02)</text>
      <text x="600" text-anchor="end" y="4" font-family="Geist Mono, monospace" font-size="10" letter-spacing="1" fill="#A29687">2 MIN AGO</text>
    </g>
    <g transform="translate(24, 148)">
      <circle r="6" fill="#C44A3A"/>
      <text x="20" y="4" font-family="Geist, sans-serif" font-size="13" font-style="italic" fill="#C44A3A">Pistachio ice cream marked out of stock by Raisa</text>
      <text x="600" text-anchor="end" y="4" font-family="Geist Mono, monospace" font-size="10" letter-spacing="1" fill="#A29687">4 MIN AGO</text>
    </g>
    <g transform="translate(24, 184)">
      <circle r="6" fill="#D69537"/>
      <text x="20" y="4" font-family="Geist, sans-serif" font-size="13" fill="#1F1A17">Order <tspan font-weight="600">#A046</tspan> went overdue (Table 12)</text>
      <text x="600" text-anchor="end" y="4" font-family="Geist Mono, monospace" font-size="10" letter-spacing="1" fill="#A29687">6 MIN AGO</text>
    </g>
    <g transform="translate(24, 220)">
      <circle r="6" fill="#3D5A3D"/>
      <text x="20" y="4" font-family="Geist, sans-serif" font-size="13" fill="#1F1A17">Table 14 placed order <tspan font-weight="600">#A050</tspan> · $17.40 NFC paid</text>
      <text x="600" text-anchor="end" y="4" font-family="Geist Mono, monospace" font-size="10" letter-spacing="1" fill="#A29687">8 MIN AGO</text>
    </g>
    <g transform="translate(24, 256)">
      <circle r="6" fill="#A29687"/>
      <text x="20" y="4" font-family="Geist, sans-serif" font-style="italic" font-size="13" fill="#6B5F55">Staff: Riya checked in (Bar)</text>
      <text x="600" text-anchor="end" y="4" font-family="Geist Mono, monospace" font-size="10" letter-spacing="1" fill="#A29687">12 MIN AGO</text>
    </g>
    <g transform="translate(24, 292)">
      <circle r="6" fill="#4F9E5F"/>
      <text x="20" y="4" font-family="Geist, sans-serif" font-size="13" fill="#1F1A17">Table 09 settled bill · $58.20 + $7 tip</text>
      <text x="600" text-anchor="end" y="4" font-family="Geist Mono, monospace" font-size="10" letter-spacing="1" fill="#A29687">15 MIN AGO</text>
    </g>
    <g transform="translate(24, 328)">
      <circle r="6" fill="#C5572D"/>
      <text x="20" y="4" font-family="Geist, sans-serif" font-style="italic" font-size="13" fill="#6B5F55">Inventory: Mango sorbet low (2 L remaining)</text>
      <text x="600" text-anchor="end" y="4" font-family="Geist Mono, monospace" font-size="10" letter-spacing="1" fill="#A29687">22 MIN AGO</text>
    </g>
    <line x1="24" y1="360" x2="728" y2="360" stroke="#E5DCCC"/>
    <text x="376" y="386" text-anchor="middle" font-family="Fraunces, Georgia, serif" font-size="13" font-weight="500" fill="#C5572D">View full <tspan font-style="italic">activity log →</tspan></text>
  </g>

  <!-- Stations -->
  <g transform="translate(1048, 592)">
    <rect width="376" height="408" rx="16" fill="#FBF8F2" stroke="#E5DCCC"/>
    <text x="24" y="36" font-family="Fraunces, Georgia, serif" font-size="18" font-weight="500" fill="#1F1A17">Stations</text>
    <text x="24" y="58" font-family="Geist Mono, monospace" font-size="10" letter-spacing="2" fill="#6B5F55">LIVE LOAD BY AREA</text>
    <g transform="translate(24, 78)">
      <rect width="328" height="68" rx="12" fill="#FFF3DC"/>
      <circle cx="24" cy="34" r="14" fill="#FBF8F2"/>
      <text x="24" y="38" text-anchor="middle" font-size="14">🍔</text>
      <text x="48" y="28" font-family="Fraunces, Georgia, serif" font-size="14" font-weight="500" fill="#1F1A17">Main <tspan font-style="italic" fill="#C5572D">Kitchen</tspan></text>
      <text x="48" y="46" font-family="Geist Mono, monospace" font-size="10" letter-spacing="1" fill="#6B5F55">2 CHEFS · 3 PREP · AVG 12:00</text>
      <g transform="translate(280, 22)">
        <rect width="32" height="24" rx="8" fill="#D69537"/>
        <text x="16" y="16" text-anchor="middle" font-family="Fraunces, Georgia, serif" font-size="13" font-weight="600" fill="#FBF8F2">8</text>
      </g>
    </g>
    <g transform="translate(24, 158)">
      <rect width="328" height="68" rx="12" fill="#D7E1D2"/>
      <circle cx="24" cy="34" r="14" fill="#FBF8F2"/>
      <text x="24" y="38" text-anchor="middle" font-size="14">☕</text>
      <text x="48" y="28" font-family="Fraunces, Georgia, serif" font-size="14" font-weight="500" fill="#1F1A17">Bar <tspan font-style="italic" fill="#C5572D">Station</tspan></text>
      <text x="48" y="46" font-family="Geist Mono, monospace" font-size="10" letter-spacing="1" fill="#6B5F55">1 BARISTA · 1 PREP · AVG 3:20</text>
      <g transform="translate(280, 22)">
        <rect width="32" height="24" rx="8" fill="#4F9E5F"/>
        <text x="16" y="16" text-anchor="middle" font-family="Fraunces, Georgia, serif" font-size="13" font-weight="600" fill="#FBF8F2">4</text>
      </g>
    </g>
    <g transform="translate(24, 238)">
      <rect width="328" height="68" rx="12" fill="#F5EFE6"/>
      <circle cx="24" cy="34" r="14" fill="#FBF8F2"/>
      <text x="24" y="38" text-anchor="middle" font-size="14">🍨</text>
      <text x="48" y="28" font-family="Fraunces, Georgia, serif" font-size="14" font-weight="500" fill="#1F1A17"><tspan font-style="italic" fill="#C5572D">Ice cream</tspan> vendor</text>
      <text x="48" y="46" font-family="Geist Mono, monospace" font-size="10" letter-spacing="1" fill="#6B5F55">1 VENDOR · 1 SCOOPING · AVG 2:14</text>
      <g transform="translate(280, 22)">
        <rect width="32" height="24" rx="8" fill="#3D5A3D"/>
        <text x="16" y="16" text-anchor="middle" font-family="Fraunces, Georgia, serif" font-size="13" font-weight="600" fill="#FBF8F2">2</text>
      </g>
    </g>
    <g transform="translate(24, 318)">
      <rect width="328" height="68" rx="12" fill="#F5EFE6"/>
      <circle cx="24" cy="34" r="14" fill="#FBF8F2"/>
      <text x="24" y="38" text-anchor="middle" font-size="14">🥐</text>
      <text x="48" y="28" font-family="Fraunces, Georgia, serif" font-size="14" font-weight="500" fill="#1F1A17">Pastry</text>
      <text x="48" y="46" font-family="Geist Mono, monospace" font-style="italic" font-size="10" letter-spacing="1" fill="#A29687">Idle · 0 active orders</text>
      <g transform="translate(280, 22)">
        <rect width="32" height="24" rx="8" fill="#D9CFBE"/>
        <text x="16" y="16" text-anchor="middle" font-family="Fraunces, Georgia, serif" font-size="13" font-weight="600" fill="#6B5F55">0</text>
      </g>
    </g>
  </g>
</svg>
