<svg width="1440" height="1024" viewBox="0 0 1440 1024" xmlns="http://www.w3.org/2000/svg" font-family="Inter, system-ui, -apple-system, Segoe UI, sans-serif">
  <rect width="1440" height="1024" fill="#FAFAF7"/>

  <!-- Sidebar -->
  <rect x="0" y="0" width="240" height="1024" fill="#FFFFFF"/>
  <rect x="239" y="0" width="1" height="1024" fill="#E5E3DA"/>
  <g transform="translate(24, 32)">
    <circle cx="16" cy="16" r="16" fill="#F26B3A"/>
    <path d="M 10 14 H 22 L 20 22 Q 20 24 18 24 H 14 Q 12 24 12 22 Z" fill="#FFFFFF"/>
    <text x="46" y="14" font-size="15" font-weight="700" fill="#1A1A17">Hyperglow</text>
    <text x="46" y="28" font-size="10" font-weight="600" letter-spacing="2" fill="#8A887E">ADMIN</text>
  </g>
  <line x1="24" y1="88" x2="216" y2="88" stroke="#F2F1EC"/>
  <text x="32" y="116" font-size="10" font-weight="700" letter-spacing="2" fill="#8A887E">OVERVIEW</text>
  <g transform="translate(16, 128)"><text x="40" y="25" font-size="13" font-weight="500" fill="#4D4B44">Dashboard</text></g>
  <g transform="translate(16, 168)"><text x="40" y="25" font-size="13" font-weight="500" fill="#4D4B44">Live orders</text></g>
  <g transform="translate(16, 208)"><text x="40" y="25" font-size="13" font-weight="500" fill="#4D4B44">Order history</text></g>
  <text x="32" y="276" font-size="10" font-weight="700" letter-spacing="2" fill="#F26B3A">MENU</text>
  <g transform="translate(16, 288)"><text x="40" y="25" font-size="13" font-weight="500" fill="#4D4B44">Categories</text></g>
  <g transform="translate(16, 328)">
    <rect width="208" height="40" rx="12" fill="#FEE6DC"/>
    <text x="40" y="25" font-size="13" font-weight="700" fill="#F26B3A">Items</text>
    <g transform="translate(170, 12)">
      <rect width="32" height="18" rx="6" fill="#F26B3A"/>
      <text x="16" y="13" text-anchor="middle" font-size="10" font-weight="700" fill="#FFFFFF">86</text>
    </g>
  </g>
  <g transform="translate(16, 368)"><text x="40" y="25" font-size="13" font-weight="500" fill="#4D4B44">Extras &amp; modifiers</text></g>
  <text x="32" y="432" font-size="10" font-weight="700" letter-spacing="2" fill="#8A887E">OPERATIONS</text>
  <g transform="translate(16, 444)"><text x="40" y="25" font-size="13" font-weight="500" fill="#4D4B44">Devices / Tables</text></g>
  <g transform="translate(16, 484)"><text x="40" y="25" font-size="13" font-weight="500" fill="#4D4B44">Stations</text></g>
  <g transform="translate(16, 524)"><text x="40" y="25" font-size="13" font-weight="500" fill="#4D4B44">Staff</text></g>
  <g transform="translate(16, 564)"><text x="40" y="25" font-size="13" font-weight="500" fill="#4D4B44">Reports</text></g>
  <text x="32" y="628" font-size="10" font-weight="700" letter-spacing="2" fill="#8A887E">SETTINGS</text>
  <g transform="translate(16, 640)"><text x="40" y="25" font-size="13" font-weight="500" fill="#4D4B44">Payments</text></g>
  <g transform="translate(16, 680)"><text x="40" y="25" font-size="13" font-weight="500" fill="#4D4B44">Branding</text></g>
  <g transform="translate(16, 952)">
    <rect width="208" height="56" rx="14" fill="#FAFAF7" stroke="#E5E3DA"/>
    <circle cx="32" cy="28" r="16" fill="#F26B3A"/>
    <text x="32" y="33" text-anchor="middle" font-size="13" font-weight="700" fill="#FFFFFF">MR</text>
    <text x="56" y="26" font-size="12" font-weight="700" fill="#1A1A17">Mahmudur R.</text>
    <text x="56" y="42" font-size="11" fill="#8A887E">Owner</text>
  </g>

  <!-- Top header -->
  <rect x="240" y="0" width="1200" height="72" fill="#FFFFFF"/>
  <rect x="240" y="71" width="1200" height="1" fill="#E5E3DA"/>
  <text x="272" y="36" font-size="20" font-weight="700" fill="#1A1A17">Menu · Items</text>
  <text x="272" y="54" font-size="12" fill="#8A887E">86 items · 4 currently out of stock · Toggle stock to hide from all tabletops instantly</text>
  <g transform="translate(1196, 18)"><rect width="100" height="36" rx="10" fill="#FAFAF7" stroke="#E5E3DA"/><text x="50" y="23" text-anchor="middle" font-size="12" font-weight="600" fill="#1A1A17">Import CSV</text></g>
  <g transform="translate(1304, 18)"><rect width="116" height="36" rx="10" fill="#F26B3A"/><text x="58" y="23" text-anchor="middle" font-size="12" font-weight="700" fill="#FFFFFF">+ New item</text></g>

  <!-- Live banner -->
  <g transform="translate(272, 96)">
    <rect width="1136" height="60" rx="14" fill="#FBE5DF" stroke="#D43A3A"/>
    <g transform="translate(28, 30)" stroke="#D43A3A" stroke-width="2" stroke-linecap="round" fill="none">
      <circle r="14"/>
      <line x1="0" y1="-6" x2="0" y2="2"/>
      <circle r="1.5" cx="0" cy="7" fill="#D43A3A"/>
    </g>
    <text x="56" y="32" font-size="13" font-weight="700" fill="#D43A3A">4 items out of stock — currently hidden from all 20 customer tabletops</text>
    <text x="56" y="50" font-size="11" fill="#4D4B44">Pistachio Ice Cream · Glow Hot Wings · Margherita Pizza 18" · Strawberry Cheesecake</text>
    <g transform="translate(960, 14)"><rect width="148" height="32" rx="10" fill="#FFFFFF" stroke="#D43A3A"/><text x="74" y="20" text-anchor="middle" font-size="11" font-weight="700" fill="#D43A3A">Review out-of-stock</text></g>
  </g>

  <!-- Filter bar -->
  <g transform="translate(272, 172)">
    <g><rect width="64" height="32" rx="10" fill="#1A1A17"/><text x="32" y="21" text-anchor="middle" font-size="12" font-weight="700" fill="#FFFFFF">All · 86</text></g>
    <g transform="translate(76, 0)"><rect width="106" height="32" rx="10" fill="#FFFFFF" stroke="#E5E3DA"/><text x="53" y="21" text-anchor="middle" font-size="12" font-weight="500" fill="#4D4B44">⭐ Signature 12</text></g>
    <g transform="translate(194, 0)"><rect width="90" height="32" rx="10" fill="#FFFFFF" stroke="#E5E3DA"/><text x="45" y="21" text-anchor="middle" font-size="12" font-weight="500" fill="#4D4B44">🍔 Burgers 9</text></g>
    <g transform="translate(296, 0)"><rect width="82" height="32" rx="10" fill="#FFFFFF" stroke="#E5E3DA"/><text x="41" y="21" text-anchor="middle" font-size="12" font-weight="500" fill="#4D4B44">🍕 Pizza 11</text></g>
    <g transform="translate(390, 0)"><rect width="82" height="32" rx="10" fill="#FFFFFF" stroke="#E5E3DA"/><text x="41" y="21" text-anchor="middle" font-size="12" font-weight="500" fill="#4D4B44">🍝 Pasta 7</text></g>
    <g transform="translate(484, 0)"><rect width="86" height="32" rx="10" fill="#FFFFFF" stroke="#E5E3DA"/><text x="43" y="21" text-anchor="middle" font-size="12" font-weight="500" fill="#4D4B44">☕ Coffee 14</text></g>
    <g transform="translate(582, 0)"><rect width="106" height="32" rx="10" fill="#FFFFFF" stroke="#E5E3DA"/><text x="53" y="21" text-anchor="middle" font-size="12" font-weight="500" fill="#4D4B44">🍨 Ice Cream 10</text></g>
    <g transform="translate(700, 0)"><rect width="78" height="32" rx="10" fill="#FFFFFF" stroke="#E5E3DA"/><text x="39" y="21" text-anchor="middle" font-size="12" font-weight="500" fill="#4D4B44">🥤 Drinks 15</text></g>
    <g transform="translate(940, 0)"><rect width="196" height="32" rx="10" fill="#FAFAF7" stroke="#E5E3DA"/><text x="14" y="21" font-size="11" fill="#8A887E">Stock:</text><text x="50" y="21" font-size="11" font-weight="600" fill="#1A1A17">All</text><polyline points="176,14 184,22 192,14" fill="none" stroke="#4D4B44" stroke-width="1.5"/></g>
  </g>

  <!-- Search -->
  <g transform="translate(272, 216)">
    <rect width="800" height="40" rx="12" fill="#FFFFFF" stroke="#E5E3DA"/>
    <g transform="translate(18, 20)" stroke="#8A887E" stroke-width="1.5" fill="none"><circle cx="0" cy="0" r="6"/><line x1="5" y1="5" x2="11" y2="11" stroke-linecap="round"/></g>
    <text x="40" y="24" font-size="13" fill="#8A887E">Search by name, SKU, ingredient…</text>
    <g transform="translate(720, 8)"><rect width="72" height="24" rx="6" fill="#FAFAF7"/><text x="36" y="16" text-anchor="middle" font-size="10" font-weight="700" fill="#4D4B44">⌘ K</text></g>
  </g>
  <g transform="translate(1086, 216)"><rect width="106" height="40" rx="12" fill="#FAFAF7" stroke="#E5E3DA"/><text x="14" y="24" font-size="12" fill="#8A887E">Sort:</text><text x="46" y="24" font-size="12" font-weight="600" fill="#1A1A17">Name</text><polyline points="86,16 94,24 102,16" fill="none" stroke="#4D4B44" stroke-width="1.5"/></g>
  <g transform="translate(1204, 216)"><rect width="100" height="40" rx="12" fill="#FAFAF7" stroke="#E5E3DA"/><text x="50" y="24" text-anchor="middle" font-size="12" font-weight="600" fill="#1A1A17">⚙ Columns</text></g>
  <g transform="translate(1316, 216)"><rect width="92" height="40" rx="12" fill="#FAFAF7" stroke="#E5E3DA"/><text x="46" y="24" text-anchor="middle" font-size="12" font-weight="600" fill="#1A1A17">⤓ Export</text></g>

  <!-- Table -->
  <g transform="translate(272, 280)">
    <rect width="1136" height="720" rx="16" fill="#FFFFFF" stroke="#E5E3DA"/>
    <rect width="1136" height="44" rx="16" fill="#FAFAF7"/>
    <rect y="24" width="1136" height="20" fill="#FAFAF7"/>
    <line y1="44" x2="1136" y2="44" stroke="#E5E3DA"/>
    <g font-size="11" font-weight="700" letter-spacing="1.5" fill="#8A887E">
      <text x="56" y="28">ITEM</text>
      <text x="380" y="28">CATEGORY</text>
      <text x="500" y="28">STATION</text>
      <text x="624" y="28">PRICE</text>
      <text x="720" y="28">SOLD 24H</text>
      <text x="820" y="28">STOCK</text>
      <text x="1000" y="28">ACTIONS</text>
    </g>

    <g transform="translate(0, 60)">
      <rect x="16" y="-2" width="24" height="24" rx="6" fill="#FFFFFF" stroke="#C9C7BD" stroke-width="1.5"/>
      <rect x="56" y="-12" width="44" height="44" rx="10" fill="#FBE5DF"/>
      <text x="78" y="16" text-anchor="middle" font-size="18">🍔</text>
      <text x="112" y="6" font-size="14" font-weight="700" fill="#1A1A17">Glow Smash Burger</text>
      <text x="112" y="22" font-size="11" fill="#8A887E">SKU GLB-001 · Brioche bun · 425 kcal · ⭐</text>
      <text x="380" y="12" font-size="12" fill="#4D4B44">⭐ Signature</text>
      <text x="500" y="12" font-size="12" fill="#4D4B44">Main Kitchen</text>
      <text x="624" y="12" font-family="JetBrains Mono, Menlo, Consolas, monospace" font-size="12" font-weight="700" fill="#1A1A17">$12.50</text>
      <text x="720" y="12" font-family="JetBrains Mono, Menlo, Consolas, monospace" font-size="12" font-weight="600" fill="#2D8A66">28 ▲</text>
      <g transform="translate(820, 0)">
        <rect width="40" height="20" rx="10" fill="#2D8A66"/>
        <circle cx="30" cy="10" r="8" fill="#FFFFFF"/>
        <text x="48" y="14" font-size="11" font-weight="700" fill="#2D8A66">In stock</text>
      </g>
      <g transform="translate(1000, -6)"><rect width="60" height="28" rx="8" fill="#FAFAF7" stroke="#E5E3DA"/><text x="30" y="19" text-anchor="middle" font-size="11" font-weight="600" fill="#4D4B44">Edit</text></g>
      <text x="1100" y="14" font-size="14" fill="#8A887E">⋯</text>
    </g>
    <line x1="16" y1="100" x2="1120" y2="100" stroke="#F2F1EC"/>

    <g transform="translate(0, 124)">
      <rect x="16" y="-2" width="24" height="24" rx="6" fill="#FFFFFF" stroke="#C9C7BD" stroke-width="1.5"/>
      <rect x="56" y="-12" width="44" height="44" rx="10" fill="#FFEAD1"/>
      <text x="78" y="16" text-anchor="middle" font-size="18">🍔</text>
      <text x="112" y="6" font-size="14" font-weight="700" fill="#1A1A17">Tex-Mex Chicken Burger</text>
      <text x="112" y="22" font-size="11" fill="#8A887E">SKU TMC-002 · Jalapeño · Lime mayo · 🌶 Spicy</text>
      <text x="380" y="12" font-size="12" fill="#4D4B44">🍔 Burgers</text>
      <text x="500" y="12" font-size="12" fill="#4D4B44">Main Kitchen</text>
      <text x="624" y="12" font-family="JetBrains Mono, Menlo, Consolas, monospace" font-size="12" font-weight="700" fill="#1A1A17">$11.00</text>
      <text x="720" y="12" font-family="JetBrains Mono, Menlo, Consolas, monospace" font-size="12" font-weight="600" fill="#2D8A66">11 ▲</text>
      <g transform="translate(820, 0)"><rect width="40" height="20" rx="10" fill="#2D8A66"/><circle cx="30" cy="10" r="8" fill="#FFFFFF"/><text x="48" y="14" font-size="11" font-weight="700" fill="#2D8A66">In stock</text></g>
      <g transform="translate(1000, -6)"><rect width="60" height="28" rx="8" fill="#FAFAF7" stroke="#E5E3DA"/><text x="30" y="19" text-anchor="middle" font-size="11" font-weight="600" fill="#4D4B44">Edit</text></g>
      <text x="1100" y="14" font-size="14" fill="#8A887E">⋯</text>
    </g>
    <line x1="16" y1="164" x2="1120" y2="164" stroke="#F2F1EC"/>

    <g transform="translate(0, 188)">
      <rect x="8" y="-16" width="1120" height="64" rx="10" fill="#FBE5DF" opacity="0.6"/>
      <rect x="16" y="-2" width="24" height="24" rx="6" fill="#FFFFFF" stroke="#C9C7BD" stroke-width="1.5"/>
      <rect x="56" y="-12" width="44" height="44" rx="10" fill="#FBE5DF"/>
      <text x="78" y="16" text-anchor="middle" font-size="18" opacity="0.6">🌶</text>
      <text x="112" y="6" font-size="14" font-weight="700" fill="#1A1A17">Glow Hot Wings</text>
      <text x="112" y="22" font-size="11" font-weight="600" fill="#D43A3A">⚠ OUT — Hidden from customers since 14:22 by Khalid</text>
      <text x="380" y="12" font-size="12" fill="#4D4B44">⭐ Signature</text>
      <text x="500" y="12" font-size="12" fill="#4D4B44">Main Kitchen</text>
      <text x="624" y="12" font-family="JetBrains Mono, Menlo, Consolas, monospace" font-size="12" font-weight="700" fill="#1A1A17">$11.00</text>
      <text x="720" y="12" font-family="JetBrains Mono, Menlo, Consolas, monospace" font-size="12" fill="#8A887E">7</text>
      <g transform="translate(820, 0)"><rect width="40" height="20" rx="10" fill="#D43A3A"/><circle cx="10" cy="10" r="8" fill="#FFFFFF"/><text x="48" y="14" font-size="11" font-weight="700" fill="#D43A3A">Out</text></g>
      <g transform="translate(1000, -6)"><rect width="60" height="28" rx="8" fill="#FAFAF7" stroke="#E5E3DA"/><text x="30" y="19" text-anchor="middle" font-size="11" font-weight="600" fill="#4D4B44">Edit</text></g>
      <text x="1100" y="14" font-size="14" fill="#8A887E">⋯</text>
    </g>
    <line x1="16" y1="228" x2="1120" y2="228" stroke="#F2F1EC"/>

    <g transform="translate(0, 252)">
      <rect x="16" y="-2" width="24" height="24" rx="6" fill="#FFFFFF" stroke="#C9C7BD" stroke-width="1.5"/>
      <rect x="56" y="-12" width="44" height="44" rx="10" fill="#FFEAD1"/>
      <text x="78" y="16" text-anchor="middle" font-size="18">🍕</text>
      <text x="112" y="6" font-size="14" font-weight="700" fill="#1A1A17">Margherita Pizza 12"</text>
      <text x="112" y="22" font-size="11" fill="#8A887E">SKU MRG-12 · San Marzano · Buffalo mozz · 620 kcal</text>
      <text x="380" y="12" font-size="12" fill="#4D4B44">🍕 Pizza</text>
      <text x="500" y="12" font-size="12" fill="#4D4B44">Main Kitchen</text>
      <text x="624" y="12" font-family="JetBrains Mono, Menlo, Consolas, monospace" font-size="12" font-weight="700" fill="#1A1A17">$14.50</text>
      <text x="720" y="12" font-family="JetBrains Mono, Menlo, Consolas, monospace" font-size="12" font-weight="600" fill="#2D8A66">17 ▲</text>
      <g transform="translate(820, 0)"><rect width="40" height="20" rx="10" fill="#2D8A66"/><circle cx="30" cy="10" r="8" fill="#FFFFFF"/><text x="48" y="14" font-size="11" font-weight="700" fill="#2D8A66">In stock</text></g>
      <g transform="translate(1000, -6)"><rect width="60" height="28" rx="8" fill="#FAFAF7" stroke="#E5E3DA"/><text x="30" y="19" text-anchor="middle" font-size="11" font-weight="600" fill="#4D4B44">Edit</text></g>
      <text x="1100" y="14" font-size="14" fill="#8A887E">⋯</text>
    </g>
    <line x1="16" y1="292" x2="1120" y2="292" stroke="#F2F1EC"/>

    <g transform="translate(0, 316)">
      <rect x="8" y="-16" width="1120" height="64" rx="10" fill="#FBE5DF" opacity="0.6"/>
      <rect x="16" y="-2" width="24" height="24" rx="6" fill="#FFFFFF" stroke="#C9C7BD" stroke-width="1.5"/>
      <rect x="56" y="-12" width="44" height="44" rx="10" fill="#FFEAD1"/>
      <text x="78" y="16" text-anchor="middle" font-size="18" opacity="0.6">🍕</text>
      <text x="112" y="6" font-size="14" font-weight="700" fill="#1A1A17">Margherita Pizza 18"</text>
      <text x="112" y="22" font-size="11" font-weight="600" fill="#D43A3A">⚠ OUT — Dough sold out · Hidden from customers</text>
      <text x="380" y="12" font-size="12" fill="#4D4B44">🍕 Pizza</text>
      <text x="500" y="12" font-size="12" fill="#4D4B44">Main Kitchen</text>
      <text x="624" y="12" font-family="JetBrains Mono, Menlo, Consolas, monospace" font-size="12" font-weight="700" fill="#1A1A17">$22.00</text>
      <text x="720" y="12" font-family="JetBrains Mono, Menlo, Consolas, monospace" font-size="12" fill="#8A887E">3</text>
      <g transform="translate(820, 0)"><rect width="40" height="20" rx="10" fill="#D43A3A"/><circle cx="10" cy="10" r="8" fill="#FFFFFF"/><text x="48" y="14" font-size="11" font-weight="700" fill="#D43A3A">Out</text></g>
      <g transform="translate(1000, -6)"><rect width="60" height="28" rx="8" fill="#FAFAF7" stroke="#E5E3DA"/><text x="30" y="19" text-anchor="middle" font-size="11" font-weight="600" fill="#4D4B44">Edit</text></g>
      <text x="1100" y="14" font-size="14" fill="#8A887E">⋯</text>
    </g>
    <line x1="16" y1="356" x2="1120" y2="356" stroke="#F2F1EC"/>

    <g transform="translate(0, 380)">
      <rect x="16" y="-2" width="24" height="24" rx="6" fill="#FFFFFF" stroke="#C9C7BD" stroke-width="1.5"/>
      <rect x="56" y="-12" width="44" height="44" rx="10" fill="#E8F3EE"/>
      <text x="78" y="16" text-anchor="middle" font-size="18">☕</text>
      <text x="112" y="6" font-size="14" font-weight="700" fill="#1A1A17">Iced Honey Latte</text>
      <text x="112" y="22" font-size="11" fill="#8A887E">SKU IHL-101 · Local honey · Oat or whole · 🔥 Popular</text>
      <text x="380" y="12" font-size="12" fill="#4D4B44">☕ Coffee</text>
      <text x="500" y="12" font-size="12" fill="#4D4B44">Bar Station</text>
      <text x="624" y="12" font-family="JetBrains Mono, Menlo, Consolas, monospace" font-size="12" font-weight="700" fill="#1A1A17">$5.80</text>
      <text x="720" y="12" font-family="JetBrains Mono, Menlo, Consolas, monospace" font-size="12" font-weight="600" fill="#2D8A66">22 ▲</text>
      <g transform="translate(820, 0)"><rect width="40" height="20" rx="10" fill="#2D8A66"/><circle cx="30" cy="10" r="8" fill="#FFFFFF"/><text x="48" y="14" font-size="11" font-weight="700" fill="#2D8A66">In stock</text></g>
      <g transform="translate(1000, -6)"><rect width="60" height="28" rx="8" fill="#FAFAF7" stroke="#E5E3DA"/><text x="30" y="19" text-anchor="middle" font-size="11" font-weight="600" fill="#4D4B44">Edit</text></g>
      <text x="1100" y="14" font-size="14" fill="#8A887E">⋯</text>
    </g>
    <line x1="16" y1="420" x2="1120" y2="420" stroke="#F2F1EC"/>

    <g transform="translate(0, 444)">
      <rect x="16" y="-2" width="24" height="24" rx="6" fill="#FFFFFF" stroke="#C9C7BD" stroke-width="1.5"/>
      <rect x="56" y="-12" width="44" height="44" rx="10" fill="#E6F2EE"/>
      <text x="78" y="16" text-anchor="middle" font-size="18">🍨</text>
      <text x="112" y="6" font-size="14" font-weight="700" fill="#1A1A17">Vanilla Bean Scoop</text>
      <text x="112" y="22" font-size="11" font-weight="600" fill="#E8A33B">⚠ Low stock — vanilla beans 12 servings left</text>
      <text x="380" y="12" font-size="12" fill="#4D4B44">🍨 Ice Cream</text>
      <text x="500" y="12" font-size="12" fill="#4D4B44">Ice Cream</text>
      <text x="624" y="12" font-family="JetBrains Mono, Menlo, Consolas, monospace" font-size="12" font-weight="700" fill="#1A1A17">$3.60</text>
      <text x="720" y="12" font-family="JetBrains Mono, Menlo, Consolas, monospace" font-size="12" font-weight="600" fill="#2D8A66">14 ▲</text>
      <g transform="translate(820, 0)"><rect width="40" height="20" rx="10" fill="#E8A33B"/><circle cx="30" cy="10" r="8" fill="#FFFFFF"/><text x="48" y="14" font-size="11" font-weight="700" fill="#E8A33B">Low</text></g>
      <g transform="translate(1000, -6)"><rect width="60" height="28" rx="8" fill="#FAFAF7" stroke="#E5E3DA"/><text x="30" y="19" text-anchor="middle" font-size="11" font-weight="600" fill="#4D4B44">Edit</text></g>
      <text x="1100" y="14" font-size="14" fill="#8A887E">⋯</text>
    </g>
    <line x1="16" y1="484" x2="1120" y2="484" stroke="#F2F1EC"/>

    <g transform="translate(0, 508)">
      <rect x="8" y="-16" width="1120" height="64" rx="10" fill="#FBE5DF" opacity="0.6"/>
      <rect x="16" y="-2" width="24" height="24" rx="6" fill="#FFFFFF" stroke="#C9C7BD" stroke-width="1.5"/>
      <rect x="56" y="-12" width="44" height="44" rx="10" fill="#E6F2EE"/>
      <text x="78" y="16" text-anchor="middle" font-size="18" opacity="0.6">🍨</text>
      <text x="112" y="6" font-size="14" font-weight="700" fill="#1A1A17">Pistachio Ice Cream</text>
      <text x="112" y="22" font-size="11" font-weight="600" fill="#D43A3A">⚠ OUT — Hidden by Raisa at 19:58</text>
      <text x="380" y="12" font-size="12" fill="#4D4B44">🍨 Ice Cream</text>
      <text x="500" y="12" font-size="12" fill="#4D4B44">Ice Cream</text>
      <text x="624" y="12" font-family="JetBrains Mono, Menlo, Consolas, monospace" font-size="12" font-weight="700" fill="#1A1A17">$4.20</text>
      <text x="720" y="12" font-family="JetBrains Mono, Menlo, Consolas, monospace" font-size="12" fill="#8A887E">9</text>
      <g transform="translate(820, 0)"><rect width="40" height="20" rx="10" fill="#D43A3A"/><circle cx="10" cy="10" r="8" fill="#FFFFFF"/><text x="48" y="14" font-size="11" font-weight="700" fill="#D43A3A">Out</text></g>
      <g transform="translate(1000, -6)"><rect width="60" height="28" rx="8" fill="#FAFAF7" stroke="#E5E3DA"/><text x="30" y="19" text-anchor="middle" font-size="11" font-weight="600" fill="#4D4B44">Edit</text></g>
      <text x="1100" y="14" font-size="14" fill="#8A887E">⋯</text>
    </g>
    <line x1="16" y1="548" x2="1120" y2="548" stroke="#F2F1EC"/>

    <g transform="translate(0, 572)">
      <rect x="8" y="-16" width="1120" height="64" rx="10" fill="#FBE5DF" opacity="0.6"/>
      <rect x="16" y="-2" width="24" height="24" rx="6" fill="#FFFFFF" stroke="#C9C7BD" stroke-width="1.5"/>
      <rect x="56" y="-12" width="44" height="44" rx="10" fill="#FFF3DC"/>
      <text x="78" y="16" text-anchor="middle" font-size="18" opacity="0.6">🥮</text>
      <text x="112" y="6" font-size="14" font-weight="700" fill="#1A1A17">Strawberry Cheesecake</text>
      <text x="112" y="22" font-size="11" font-weight="600" fill="#D43A3A">⚠ OUT — Last slice sold at 19:33</text>
      <text x="380" y="12" font-size="12" fill="#4D4B44">🥐 Pastries</text>
      <text x="500" y="12" font-size="12" fill="#4D4B44">Pastry</text>
      <text x="624" y="12" font-family="JetBrains Mono, Menlo, Consolas, monospace" font-size="12" font-weight="700" fill="#1A1A17">$7.50</text>
      <text x="720" y="12" font-family="JetBrains Mono, Menlo, Consolas, monospace" font-size="12" fill="#8A887E">5</text>
      <g transform="translate(820, 0)"><rect width="40" height="20" rx="10" fill="#D43A3A"/><circle cx="10" cy="10" r="8" fill="#FFFFFF"/><text x="48" y="14" font-size="11" font-weight="700" fill="#D43A3A">Out</text></g>
      <g transform="translate(1000, -6)"><rect width="60" height="28" rx="8" fill="#FAFAF7" stroke="#E5E3DA"/><text x="30" y="19" text-anchor="middle" font-size="11" font-weight="600" fill="#4D4B44">Edit</text></g>
      <text x="1100" y="14" font-size="14" fill="#8A887E">⋯</text>
    </g>
    <line x1="16" y1="612" x2="1120" y2="612" stroke="#F2F1EC"/>

    <g transform="translate(0, 660)">
      <text x="20" y="20" font-size="12" fill="#8A887E">Showing 1–9 of 86 items</text>
      <g transform="translate(900, 4)"><rect width="64" height="28" rx="8" fill="#FFFFFF" stroke="#E5E3DA"/><text x="32" y="19" text-anchor="middle" font-size="11" font-weight="600" fill="#4D4B44">← Prev</text></g>
      <g transform="translate(972, 4)"><rect width="28" height="28" rx="8" fill="#1A1A17"/><text x="14" y="19" text-anchor="middle" font-size="11" font-weight="700" fill="#FFFFFF">1</text></g>
      <g transform="translate(1004, 4)"><rect width="28" height="28" rx="8" fill="#FFFFFF" stroke="#E5E3DA"/><text x="14" y="19" text-anchor="middle" font-size="11" font-weight="600" fill="#4D4B44">2</text></g>
      <g transform="translate(1036, 4)"><rect width="28" height="28" rx="8" fill="#FFFFFF" stroke="#E5E3DA"/><text x="14" y="19" text-anchor="middle" font-size="11" font-weight="600" fill="#4D4B44">…</text></g>
      <g transform="translate(1068, 4)"><rect width="28" height="28" rx="8" fill="#FFFFFF" stroke="#E5E3DA"/><text x="14" y="19" text-anchor="middle" font-size="11" font-weight="600" fill="#4D4B44">10</text></g>
      <g transform="translate(1100, 4)"><rect width="64" height="28" rx="8" fill="#FFFFFF" stroke="#E5E3DA"/><text x="32" y="19" text-anchor="middle" font-size="11" font-weight="600" fill="#4D4B44">Next →</text></g>
    </g>
  </g>
</svg>
